<svg xmlns="http://www.w3.org/2000/svg" viewBox="0 0 800 800" role="img" aria-labelledby="title desc">
  <title id="title">Ready PH</title>
  <desc id="desc">Ready PH education logo with a graduation cap and check mark</desc>
  <rect width="800" height="800" fill="#fff"/>
  <circle cx="400" cy="400" r="350" fill="#fff" stroke="#0878bd" stroke-width="15"/>
  <circle cx="400" cy="400" r="322" fill="none" stroke="#0878bd" stroke-width="4"/>
  <g fill="#f4b719" stroke="#f4b719" stroke-linecap="round" stroke-linejoin="round">
    <path d="M245 214 400 157l155 57-155 57z" stroke-width="16"/>
    <path d="M290 239v65c68 35 152 35 220 0v-65" fill="none" stroke-width="16"/>
    <path d="M555 215v81" fill="none" stroke-width="15"/>
    <path d="M555 298c-22 19-20 45-6 62" fill="none" stroke-width="15"/>
  </g>
  <path d="M294 314c-29 0-48 21-48 47 0 15 6 28 17 39l41 99c8 19 30 31 51 22 11-5 19-13 25-24l84-148c12-22 4-49-18-61-21-11-47-4-59 17l-35 60-29-31c-8-12-18-20-29-20z" fill="#0878bd"/>
  <path d="M411 330c53-29 102-29 136 5 34 34 32 84 3 119-20 24-52 35-85 35h-31l-37-55h54c22 0 38-13 38-33 0-20-15-34-38-34h-37z" fill="#0878bd"/>
  <text x="400" y="625" text-anchor="middle" fill="#07558e" font-family="Arial, Helvetica, sans-serif" font-size="91" font-weight="700" letter-spacing="-3">Ready PH</text>
</svg>
